<svg width="300" height="200" xmlns="http://www.w3.org/2000/svg">
  <!-- Hand waving goodbye -->
  <g id="hand" transform="translate(150, 80)">
    <!-- Palm -->
    <ellipse cx="0" cy="0" rx="25" ry="35" fill="#FFDBAC" stroke="#E6B87D" stroke-width="2"/>
    
    <!-- Thumb -->
    <ellipse cx="-20" cy="-5" rx="8" ry="15" fill="#FFDBAC" stroke="#E6B87D" stroke-width="2" transform="rotate(-30)"/>
    
    <!-- Index finger -->
    <ellipse cx="8" cy="-25" rx="6" ry="18" fill="#FFDBAC" stroke="#E6B87D" stroke-width="2" transform="rotate(10)"/>
    
    <!-- Middle finger -->
    <ellipse cx="0" cy="-30" rx="6" ry="20" fill="#FFDBAC" stroke="#E6B87D" stroke-width="2"/>
    
    <!-- Ring finger -->
    <ellipse cx="-8" cy="-28" rx="6" ry="18" fill="#FFDBAC" stroke="#E6B87D" stroke-width="2" transform="rotate(-10)"/>
    
    <!-- Pinky -->
    <ellipse cx="-15" cy="-22" rx="5" ry="15" fill="#FFDBAC" stroke="#E6B87D" stroke-width="2" transform="rotate(-20)"/>
    
    <!-- Wrist -->
    <rect x="-15" y="20" width="30" height="20" fill="#FFDBAC" stroke="#E6B87D" stroke-width="2" rx="5"/>
    
    <!-- Pointing gesture - arrow pointing down -->
    <path d="M 0 45 L 0 65 M -8 57 L 0 65 L 8 57" stroke="#818589" stroke-width="3" fill="none" stroke-linecap="round"/>
  </g>
  
  <!-- Wave motion lines -->
  <g id="wave-lines" opacity="0.6">
    <path d="M 120 50 Q 130 45 140 50 Q 150 55 160 50" stroke="#FFD700" stroke-width="2" fill="none"/>
    <path d="M 115 45 Q 125 40 135 45 Q 145 50 155 45" stroke="#FFD700" stroke-width="2" fill="none"/>
    <path d="M 125 55 Q 135 50 145 55 Q 155 60 165 55" stroke="#FFD700" stroke-width="2" fill="none"/>
  </g>
  
  <!-- Text -->
  <text x="150" y="160" text-anchor="middle" font-family="Arial, sans-serif" font-size="21" font-weight="bold" fill="#cdaa7d">
    👋 Look down for further details
  </text>
  
  <!-- Animation for waving motion -->
  <animateTransform
    attributeName="transform"
    type="rotate"
    values="0 150 80;15 150 80;-15 150 80;0 150 80"
    dur="3s"
    repeatCount="indefinite"/>
</svg>